# xmcd
#
# Track frame offsets:
# 150
# 12481
# 25598
# 39015
# 50642
# 63706
# 76986
# 92032
# 103412
# 116714
# 128080
# 140990
# 155824
# 168792
# 183894
# 199451
# 213789
# 227804
# 238830
# 253948
# 269390
# 283812
# 298064
# 312142
#
# Disc length: 4345 seconds
#
#
# Revision: 0
# Processed by: cddbd v1.5.1PL0 Copyright (c) Steve Scherf et al.
# Submitted via: FreeRIP 2.92 
#
DISCID=6c10f718
DTITLE=Uncle Dave Macon - Keep My Skillet Good and Greasy
DYEAR=1900
DGENRE=Rap
TTITLE0=Keep My Skillet Good and Greasy
TTITLE1=Give Me Back My Five Dollars
TTITLE2=I'll Tickle Nancy
TTITLE3=Down and Out
TTITLE4=Cumberland Mountain Deer Race
TTITLE5=Up With the Angels
TTITLE6=They're After Me
TTITLE7=Daughter Wants to Marry
TTITLE8=Thank God for Everything
TTITLE9=Bum's Hotel
TTITLE10=Uncle Dave's Travels
TTITLE11=Uncle Dave's Travels Part 2
TTITLE12=Uncle Dave's Travels Part 3
TTITLE13=Uncle Dave's Travels Part 4
TTITLE14=Shall We Gather
TTITLE15=Summer Time
TTITLE16=Don't Get Weary
TTITLE17=Fame Apart From God's Approval
TTITLE18=The Maple On the Hill
TTITLE19=Poor Old Dad
TTITLE20=Molly Married A Travelin' Man
TTITLE21=Bear Me Away on You Snowy Wings
TTITLE22=Mocking Bird Medley
TTITLE23=Roe Rire Poor Girl
EXTD=OHCD4148
EXTT0=
EXTT1=
EXTT2=
EXTT3=
EXTT4=
EXTT5=
EXTT6=
EXTT7=
EXTT8=
EXTT9=
EXTT10=
EXTT11=
EXTT12=
EXTT13=
EXTT14=
EXTT15=
EXTT16=
EXTT17=
EXTT18=
EXTT19=
EXTT20=
EXTT21=
EXTT22=
EXTT23=
PLAYORDER=
